<svg width="175" height="263" viewBox="0 0 175 263" fill="none" xmlns="http://www.w3.org/2000/svg">
<path d="M90.2725 0.18594C89.8725 0.98594 88.1392 6.31927 86.5392 12.1859C77.8725 43.3859 66.1392 64.0526 32.6725 107.653C9.87252 137.519 1.33918 156.453 0.139185 179.519C-0.527482 196.719 1.07252 205.253 7.73918 219.119C14.1392 232.453 24.0059 244.319 36.2725 253.386C52.8059 265.653 52.4059 265.919 46.5392 247.786C39.2059 225.519 36.8059 212.186 37.4725 198.319C38.1392 182.986 42.2725 174.319 64.2725 141.919C86.1392 109.653 94.2725 93.3859 99.3392 71.5193C102.539 57.9193 102.539 35.3859 99.4725 22.1859C96.6725 10.8526 91.4725 -1.68073 90.2725 0.18594Z" fill="#DB0917"/>
<path d="M111.606 139.653C108.806 140.453 106.539 141.52 106.539 141.92C106.539 142.453 109.206 144.586 112.539 146.72C125.339 154.72 133.606 169.253 133.739 183.52C133.872 211.52 106.539 228.453 80.0058 216.72C73.3391 213.786 62.6725 204.186 58.2725 197.12C54.5391 190.986 52.9391 193.12 52.1391 205.253C51.2058 221.253 56.1391 233.253 68.8058 245.12C104.272 278.186 164.406 255.92 173.206 206.32C176.539 188.186 170.139 166.986 157.606 154.453C145.339 142.186 125.339 135.786 111.606 139.653Z" fill="#DB0917"/>
</svg>
