<svg width="487" height="97" viewBox="0 0 487 97" fill="none" xmlns="http://www.w3.org/2000/svg">
<path d="M195.467 1.18383C189.333 3.0505 183.067 8.11716 179.733 13.8505C176.933 18.7838 176.667 20.9172 176.267 44.2505C175.867 60.6505 176.267 71.5838 177.333 75.5838C180.667 88.9172 191.067 96.3838 206.267 96.2505C222.533 96.1172 233.2 87.0505 234.4 72.3838L234.933 65.1838H222.8C210.8 65.1838 210.667 65.1838 210.667 68.3838C210.667 73.0505 207.2 76.2505 203.867 74.5172C201.467 73.1838 201.333 71.4505 201.333 48.6505C201.333 27.9838 201.6 23.8505 203.467 22.3838C206.533 19.8505 209.867 22.5172 210.4 27.7172L210.8 32.1172L222.4 31.1838C228.8 30.6505 234.4 29.9838 234.8 29.7172C235.867 29.0505 233.867 16.6505 232.133 13.4505C229.733 9.0505 221.6 2.78383 216.4 1.31716C210.533 -0.416171 200.933 -0.416171 195.467 1.18383Z" fill="#DB0917"/>
<path d="M0.266667 48.1161L0.666667 95.1827H12.6667H24.6667L25.3333 66.1161L26 36.9161L30.6667 45.0494L35.3333 53.0494L40 45.4494L44.6667 37.8494L45.3333 66.5161L46 95.1827L58.4 95.5827L70.6667 95.9827V48.5161V1.18272H58.2667H45.8667L42 9.18272C36.1333 21.3161 35.6 21.4494 30 10.6494L25.0667 1.18272H12.5333H0L0.266667 48.1161Z" fill="#DB0917"/>
<path d="M78 2.91606C77.6 3.71606 77.4667 24.9161 77.6 49.8494L78 95.1827L90.4 95.5827L102.667 95.9827V48.5161V1.18272H90.6667C82.1333 1.18272 78.4 1.71606 78 2.91606Z" fill="#DB0917"/>
<path d="M110.667 48.5161V95.9827L123.067 95.5827L135.333 95.1827L136 77.1827L136.667 59.1827L141.333 77.1827L146 95.1827L158.4 95.5827C167.467 95.8494 170.667 95.5827 170.667 94.2494C170.667 93.3161 168.267 83.9827 165.2 73.4494L159.733 54.2494L162.533 51.7161C176.267 38.9161 171.067 10.2494 153.733 3.04939C150.8 1.71606 143.333 1.18272 130 1.18272H110.667V48.5161ZM142.933 24.7827C147.733 29.0494 144.533 39.8494 138.4 39.8494C136.267 39.8494 136 38.7827 136 31.1827C136 23.9827 136.4 22.5161 138.267 22.5161C139.467 22.5161 141.6 23.4494 142.933 24.7827Z" fill="#DB0917"/>
<path d="M241.6 48.1161L242 95.1827L254.267 95.5827L266.533 95.9827L266.933 77.5827L267.333 59.1827L270.933 58.7827L274.533 58.3827L274.933 76.7827L275.333 95.1827L287.733 95.5827L300 95.9827V48.5161V1.18272H288.133C278.533 1.18272 276.133 1.58272 275.467 3.31606C275.067 4.51606 274.667 12.5161 274.667 21.3161V37.1827H270.667H266.667V19.1827V1.18272H254H241.333L241.6 48.1161Z" fill="#DB0917"/>
<path d="M308.267 48.1172L308.667 95.1839H320.667H332.667L333.067 48.1172L333.333 1.18389H320.667H308L308.267 48.1172Z" fill="#DB0917"/>
<path d="M368.267 11.4498L368.667 21.8498L380.533 22.2498L392.533 22.6498L384.267 30.9164L376.133 39.1831L382.267 45.5831C388.133 51.8498 388.4 51.9831 392.4 50.3831C395.867 48.9164 396.533 49.0498 398.133 51.1831C400.8 54.7831 400.667 71.0498 398 73.7164C395.067 76.6498 392.267 74.9164 391.2 69.7164L390.4 65.1831H378.533H366.667V71.8498C366.667 86.6498 377.6 96.1165 394.667 96.3831C406.4 96.3831 414.8 92.3831 419.333 84.6498C422.267 79.5831 422.667 77.4498 422.667 64.9164C422.667 52.5164 422.267 50.3831 419.6 46.3831C417.867 43.7164 414.8 41.3164 412.267 40.5164C410 39.8498 408 38.9164 408 38.5164C408 38.1164 411.333 34.5164 415.333 30.5164L422.667 23.3164V12.2498V1.18311H395.333H367.867L368.267 11.4498Z" fill="#DB0917"/>
<path d="M428.933 2.11697C428.4 2.51697 428 15.717 428 31.317C428 55.8503 428.267 59.717 430.133 60.3836C431.333 60.7836 436.933 61.1836 442.667 61.1836C450.667 61.1836 453.2 60.7836 453.867 59.1836C454.8 56.517 459.467 56.6503 460.533 59.317C462.133 63.5836 461.333 72.7836 459.2 74.6503C457.333 76.117 456.8 75.9836 455.2 73.8503C454.133 72.517 453.333 70.517 453.333 69.5836C453.333 68.2503 450.267 67.8503 441.333 67.8503H429.333V72.917C429.333 81.0503 434.4 89.1836 441.867 93.0503C446.8 95.5836 450.133 96.2503 457.733 96.2503C473.067 96.2503 482.4 90.117 485.467 78.117C487.6 69.317 486.4 51.8503 483.067 46.2503C477.733 37.0503 466.8 33.317 458.133 37.8503C456.133 38.917 454.133 39.8503 453.867 39.8503C453.6 39.8503 453.333 35.9836 453.333 31.1836V22.517H469.2C478.4 22.517 485.333 21.9836 485.6 21.1836C485.867 20.517 485.867 15.717 485.6 10.517L485.067 1.18363H457.467C442.267 1.18363 429.333 1.58363 428.933 2.11697Z" fill="#DB0917"/>
</svg>
