<svg width="366" height="348" viewBox="0 0 366 348" fill="none" xmlns="http://www.w3.org/2000/svg">
<path d="M198.314 0C198.098 0.836602 197.881 1.6732 197.658 2.53516C193.026 21.8995 194.865 41.4791 205.39 58.7661C209.732 65.4385 214.707 71.5153 219.939 77.5C231.209 90.4703 236.443 103.778 237.314 121C239.915 118.581 241.748 116.698 242.877 113.312C243.112 112.628 243.346 111.944 243.588 111.238C243.828 110.5 244.067 109.761 244.314 109C244.595 108.169 244.877 107.337 245.166 106.48C245.893 104.324 246.608 102.164 247.314 100C263.305 114.536 273.252 139.645 274.483 160.911C275.428 186.723 272.74 211.623 255.314 232C254.542 232.932 253.77 233.864 252.975 234.824C239.582 250.333 218.772 262.004 198.314 265C193.661 265.29 189.021 265.372 184.36 265.371C182.214 265.375 180.07 265.411 177.924 265.449C165.147 265.555 153.312 263.261 141.939 257.125C141.272 256.777 140.605 256.429 139.918 256.07C117.172 244.021 102.346 224.978 94.5762 200.59C91.7918 190.968 90.9532 181.684 91.002 171.688C91.0069 170.496 91.0118 169.305 91.0169 168.078C91.3508 143.036 102.834 118.075 120.615 100.398C122.314 99 122.314 99 124.314 99C124.34 100.123 124.366 101.246 124.393 102.402C124.696 111.406 124.993 119.224 130.58 126.691C133.821 129.137 137.527 128.582 141.432 128.469C144.573 128.204 144.573 128.204 147.314 125.562C148.388 123.861 148.388 123.861 149.314 122C149.702 121.416 150.091 120.832 150.49 120.23C156.435 109.873 153.55 95.5315 151.814 84.3125C148.56 63.1715 152.108 45.3682 164.037 27.4062C165.713 25.1773 167.455 23.0778 169.314 21C169.896 20.349 170.477 19.698 171.076 19.0273C177.121 12.6535 189.242 0 198.314 0Z" fill="#DB0917"/>
<path d="M12 347C9.632 347 7.84 346.68 6.624 346.04C5.472 345.4 4.704 344.664 4.32 343.832C3.936 343 3.744 342.264 3.744 341.624C3.744 340.984 3.744 340.664 3.744 340.664L2.592 299C2.592 299 2.56 298.68 2.496 298.04C2.432 297.4 2.56 296.664 2.88 295.832C3.2 294.936 3.872 294.168 4.896 293.528C5.92 292.824 7.52 292.472 9.696 292.472C12.576 292.408 14.752 292.824 16.224 293.72C17.696 294.552 18.656 295.416 19.104 296.312C19.616 297.144 19.872 297.56 19.872 297.56L30.912 317.624C30.912 317.624 31.168 317.048 31.68 315.896C32.256 314.68 32.928 313.176 33.696 311.384C34.528 309.592 35.36 307.768 36.192 305.912C37.024 304.056 37.76 302.456 38.4 301.112C39.04 299.704 39.456 298.808 39.648 298.424C39.968 297.784 40.544 296.92 41.376 295.832C42.208 294.68 43.392 293.624 44.928 292.664C46.528 291.704 48.608 291.192 51.168 291.128C53.088 291.064 54.56 291.288 55.584 291.8C56.608 292.248 57.312 292.792 57.696 293.432C58.144 294.072 58.4 294.648 58.464 295.16C58.528 295.672 58.56 295.928 58.56 295.928C58.56 295.928 58.56 296.76 58.56 298.424C58.56 300.024 58.56 302.168 58.56 304.856C58.624 307.544 58.656 310.488 58.656 313.688C58.656 316.888 58.656 320.12 58.656 323.384C58.656 326.584 58.656 329.528 58.656 332.216C58.72 334.904 58.752 337.08 58.752 338.744C58.752 340.408 58.752 341.272 58.752 341.336C58.752 341.4 58.72 341.72 58.656 342.296C58.656 342.872 58.432 343.544 57.984 344.312C57.536 345.016 56.736 345.656 55.584 346.232C54.496 346.744 52.864 347 50.688 347C48.512 347 46.848 346.776 45.696 346.328C44.608 345.816 43.84 345.272 43.392 344.696C42.944 344.056 42.688 343.512 42.624 343.064C42.56 342.616 42.528 342.392 42.528 342.392C42.528 342.392 42.528 341.848 42.528 340.76C42.528 339.608 42.528 338.2 42.528 336.536C42.592 334.808 42.624 333.112 42.624 331.448C42.688 329.72 42.72 328.28 42.72 327.128C42.72 325.976 42.72 325.4 42.72 325.4L43.488 311.672L38.496 322.328C38.496 322.328 38.304 322.68 37.92 323.384C37.6 324.088 36.96 324.792 36 325.496C35.04 326.2 33.6 326.584 31.68 326.648C29.824 326.712 28.352 326.456 27.264 325.88C26.24 325.24 25.504 324.632 25.056 324.056C24.672 323.416 24.48 323.096 24.48 323.096L18.24 311.672C18.24 311.672 18.272 312.44 18.336 313.976C18.464 315.448 18.592 317.4 18.72 319.832C18.848 322.2 18.976 324.728 19.104 327.416C19.232 330.04 19.328 332.536 19.392 334.904C19.52 337.208 19.616 339.064 19.68 340.472C19.744 342.2 19.392 343.544 18.624 344.504C17.856 345.4 16.96 346.04 15.936 346.424C14.912 346.744 13.984 346.936 13.152 347C12.384 347 12 347 12 347ZM66.1193 342.104C65.9273 339.928 65.7993 337.208 65.7353 333.944C65.6713 330.616 65.6393 327.064 65.6393 323.288C65.6393 319.512 65.6713 315.864 65.7353 312.344C65.8633 308.76 65.9913 305.592 66.1193 302.84C66.2473 300.088 66.3753 298.104 66.5033 296.888C66.6953 295.352 67.2393 294.2 68.1353 293.432C69.0313 292.6 70.0233 292.024 71.1113 291.704C72.2633 291.384 73.2233 291.224 73.9913 291.224C74.8233 291.16 75.2393 291.128 75.2393 291.128C75.2393 291.128 75.6233 291.192 76.3913 291.32C77.2233 291.384 78.1193 291.544 79.0793 291.8C80.0393 292.056 80.7113 292.504 81.0953 293.144C81.9273 294.424 82.3113 295.672 82.2473 296.888C82.2473 298.04 82.1833 299.544 82.0553 301.4C81.6713 306.2 81.4473 310.904 81.3833 315.512C81.3193 320.12 81.3193 324.312 81.3833 328.088C81.4473 331.864 81.5113 334.872 81.5753 337.112C81.7033 339.352 81.7673 340.472 81.7673 340.472C81.7673 340.472 81.7353 340.824 81.6713 341.528C81.6713 342.168 81.4793 342.904 81.0953 343.736C80.7113 344.568 79.9753 345.336 78.8873 346.04C77.7993 346.68 76.1993 347 74.0873 347C71.9753 347 70.3433 346.776 69.1913 346.328C68.1033 345.816 67.3353 345.24 66.8873 344.6C66.5033 343.896 66.2793 343.32 66.2153 342.872C66.1513 342.36 66.1193 342.104 66.1193 342.104ZM94.383 341.816L89.967 299.96C89.967 299.96 89.871 299.768 89.679 299.384C89.551 299 89.519 298.488 89.583 297.848C89.647 297.208 89.999 296.536 90.639 295.832C91.343 295.128 92.527 294.488 94.191 293.912C96.431 293.08 99.055 292.408 102.063 291.896C105.135 291.32 108.367 291.16 111.759 291.416C115.215 291.672 118.607 292.696 121.935 294.488C123.919 295.512 125.391 296.984 126.351 298.904C127.311 300.824 127.887 302.872 128.079 305.048C128.271 307.224 128.271 309.304 128.079 311.288C127.951 313.272 127.727 314.904 127.407 316.184C127.151 317.464 127.023 318.104 127.023 318.104C127.023 318.104 126.799 318.584 126.351 319.544C125.903 320.504 125.039 321.592 123.759 322.808C122.543 323.96 120.751 324.888 118.383 325.592L132.015 340.28C132.015 340.28 132.239 340.536 132.687 341.048C133.135 341.56 133.487 342.2 133.743 342.968C134.063 343.672 133.999 344.408 133.551 345.176C133.167 345.88 132.111 346.488 130.383 347C128.591 347.512 126.991 347.64 125.583 347.384C124.239 347.128 123.119 346.712 122.223 346.136C121.391 345.56 120.751 345.016 120.303 344.504C119.855 343.992 119.631 343.736 119.631 343.736L106.959 328.088L110.127 341.624C110.127 341.624 110.191 341.912 110.319 342.488C110.447 343 110.383 343.608 110.127 344.312C109.871 345.016 109.231 345.656 108.207 346.232C107.183 346.744 105.551 347 103.311 347C101.071 347 99.311 346.744 98.031 346.232C96.815 345.72 95.951 345.112 95.439 344.408C94.927 343.704 94.607 343.096 94.479 342.584C94.415 342.072 94.383 341.816 94.383 341.816ZM103.503 299.864L105.807 319.16C105.807 319.16 106.159 319.192 106.863 319.256C107.631 319.32 108.527 319.256 109.551 319.064C110.639 318.872 111.663 318.424 112.623 317.72C113.647 316.952 114.479 315.8 115.119 314.264C115.759 312.664 115.983 310.488 115.791 307.736C115.599 305.112 115.087 303.192 114.255 301.976C113.423 300.696 112.399 299.896 111.183 299.576C109.967 299.192 108.687 299.096 107.343 299.288C105.999 299.416 104.719 299.608 103.503 299.864ZM176.561 334.616C176.561 334.616 176.465 335.032 176.273 335.864C176.081 336.696 175.665 337.72 175.025 338.936C174.385 340.152 173.393 341.4 172.049 342.68C170.769 343.896 169.009 344.92 166.769 345.752C164.529 346.584 161.713 347 158.321 347C154.225 347 150.865 346.36 148.241 345.08C145.681 343.8 143.665 342.072 142.193 339.896C140.721 337.656 139.665 335.192 139.025 332.504C138.385 329.752 138.001 326.904 137.873 323.96C137.809 321.016 137.841 318.168 137.969 315.416C138.097 312.6 138.193 310.072 138.257 307.832C138.321 304.44 138.929 301.72 140.081 299.672C141.297 297.56 142.769 295.96 144.497 294.872C146.289 293.72 148.145 292.92 150.065 292.472C151.985 292.024 153.713 291.768 155.249 291.704C158.385 291.512 161.553 292.056 164.753 293.336C167.953 294.616 170.545 296.984 172.529 300.44C173.553 302.168 173.841 303.544 173.393 304.568C173.009 305.528 172.273 306.232 171.185 306.68C170.161 307.128 169.105 307.416 168.017 307.544C166.929 307.672 166.225 307.736 165.905 307.736C163.857 307.736 162.289 307.448 161.201 306.872C160.177 306.296 159.441 305.624 158.993 304.856C158.609 304.024 158.417 303.288 158.417 302.648C158.417 302.136 158.257 301.624 157.937 301.112C157.681 300.536 157.329 300.152 156.881 299.96C156.497 299.768 156.081 299.992 155.633 300.632C155.249 301.272 154.929 302.52 154.673 304.376C154.481 305.848 154.353 307.8 154.289 310.232C154.289 312.6 154.321 315.128 154.385 317.816C154.449 320.44 154.513 322.936 154.577 325.304C154.705 327.672 154.801 329.624 154.865 331.16C154.993 332.632 155.057 333.368 155.057 333.368C155.057 333.368 155.121 333.848 155.249 334.808C155.441 335.768 155.793 336.728 156.305 337.688C156.881 338.648 157.713 339.16 158.801 339.224C159.633 339.288 160.273 339.032 160.721 338.456C161.233 337.816 161.585 337.112 161.777 336.344C162.033 335.512 162.193 334.808 162.257 334.232C162.321 333.592 162.353 333.272 162.353 333.272C162.353 333.272 162.321 333.016 162.257 332.504C162.257 331.992 162.417 331.416 162.737 330.776C163.057 330.072 163.729 329.496 164.753 329.048C165.777 328.536 167.345 328.312 169.457 328.376C171.569 328.44 173.137 328.792 174.161 329.432C175.185 330.008 175.857 330.712 176.177 331.544C176.497 332.312 176.625 333.016 176.561 333.656C176.561 334.296 176.561 334.616 176.561 334.616ZM182.159 341.72L180.335 296.408C180.335 296.408 180.335 296.152 180.335 295.64C180.399 295.128 180.623 294.552 181.007 293.912C181.391 293.208 182.095 292.6 183.119 292.088C184.207 291.512 185.775 291.192 187.823 291.128C190.575 291 192.527 291.32 193.679 292.088C194.895 292.792 195.631 293.56 195.887 294.392C196.207 295.16 196.367 295.576 196.367 295.64C196.367 295.704 196.399 296.44 196.463 297.848C196.527 299.256 196.591 300.984 196.655 303.032C196.719 305.08 196.783 307.128 196.847 309.176C196.911 311.224 196.975 312.952 197.039 314.36C197.103 315.704 197.135 316.376 197.135 316.376L207.311 315.8L205.775 296.504C205.775 296.504 205.743 296.28 205.679 295.832C205.679 295.32 205.807 294.744 206.063 294.104C206.383 293.4 207.023 292.76 207.983 292.184C209.007 291.544 210.511 291.128 212.495 290.936C214.543 290.744 216.111 290.872 217.199 291.32C218.287 291.704 219.087 292.216 219.599 292.856C220.111 293.496 220.399 294.072 220.463 294.584C220.591 295.096 220.655 295.352 220.655 295.352L223.631 340.184C223.631 340.184 223.663 340.536 223.727 341.24C223.791 341.88 223.695 342.68 223.439 343.64C223.183 344.536 222.543 345.336 221.519 346.04C220.559 346.68 219.055 347 217.007 347C214.959 347 213.359 346.712 212.207 346.136C211.055 345.56 210.223 344.92 209.711 344.216C209.199 343.448 208.879 342.776 208.751 342.2C208.623 341.624 208.559 341.336 208.559 341.336L207.887 322.904L197.423 323.48L198.287 342.296C198.287 342.296 198.255 342.552 198.191 343.064C198.127 343.512 197.871 344.056 197.423 344.696C196.975 345.272 196.207 345.816 195.119 346.328C194.031 346.776 192.431 347 190.319 347C188.207 347 186.575 346.744 185.423 346.232C184.335 345.656 183.567 345.048 183.119 344.408C182.671 343.704 182.383 343.096 182.255 342.584C182.191 342.008 182.159 341.72 182.159 341.72ZM230.932 342.104C230.74 339.928 230.612 337.208 230.548 333.944C230.484 330.616 230.452 327.064 230.452 323.288C230.452 319.512 230.484 315.864 230.548 312.344C230.676 308.76 230.804 305.592 230.932 302.84C231.06 300.088 231.188 298.104 231.316 296.888C231.508 295.352 232.052 294.2 232.948 293.432C233.844 292.6 234.836 292.024 235.924 291.704C237.076 291.384 238.036 291.224 238.804 291.224C239.636 291.16 240.052 291.128 240.052 291.128C240.052 291.128 240.436 291.192 241.204 291.32C242.036 291.384 242.932 291.544 243.892 291.8C244.852 292.056 245.524 292.504 245.908 293.144C246.74 294.424 247.124 295.672 247.06 296.888C247.06 298.04 246.996 299.544 246.868 301.4C246.484 306.2 246.26 310.904 246.196 315.512C246.132 320.12 246.132 324.312 246.196 328.088C246.26 331.864 246.324 334.872 246.388 337.112C246.516 339.352 246.58 340.472 246.58 340.472C246.58 340.472 246.548 340.824 246.484 341.528C246.484 342.168 246.292 342.904 245.908 343.736C245.524 344.568 244.788 345.336 243.7 346.04C242.612 346.68 241.012 347 238.9 347C236.788 347 235.156 346.776 234.004 346.328C232.916 345.816 232.148 345.24 231.7 344.6C231.316 343.896 231.092 343.32 231.028 342.872C230.964 342.36 230.932 342.104 230.932 342.104ZM279.141 299C279.077 298.616 279.109 298.04 279.237 297.272C279.365 296.504 279.813 295.704 280.581 294.872C281.413 293.976 282.789 293.176 284.709 292.472C286.693 291.768 289.477 291.288 293.061 291.032C297.925 290.712 301.797 291.128 304.677 292.28C307.557 293.432 309.637 294.968 310.917 296.888C312.261 298.744 313.061 300.632 313.317 302.552C313.701 305.368 313.637 307.704 313.125 309.56C312.677 311.416 312.037 312.536 311.205 312.92C311.205 312.92 311.525 313.048 312.165 313.304C312.869 313.56 313.669 314.136 314.565 315.032C315.525 315.864 316.357 317.208 317.061 319.064C317.829 320.92 318.309 323.48 318.501 326.744C318.757 331.032 318.437 334.712 317.541 337.784C316.645 340.792 314.853 343.096 312.165 344.696C309.541 346.232 305.637 347 300.453 347C295.269 347 291.173 346.424 288.165 345.272C285.157 344.056 282.981 342.552 281.637 340.76C280.357 338.968 279.717 337.208 279.717 335.48C279.717 333.752 280.197 332.44 281.157 331.544C282.181 330.648 283.205 330.04 284.229 329.72C285.253 329.4 285.829 329.24 285.957 329.24C286.085 329.24 286.565 329.24 287.397 329.24C288.293 329.176 289.285 329.24 290.373 329.432C291.525 329.624 292.549 330.04 293.445 330.68C294.341 331.32 294.885 332.312 295.077 333.656C295.333 335.448 295.813 336.728 296.517 337.496C297.221 338.264 297.893 338.744 298.533 338.936C299.237 339.128 299.589 339.224 299.589 339.224C299.589 339.224 299.781 339.224 300.165 339.224C300.613 339.16 301.061 338.904 301.509 338.456C302.021 337.944 302.437 337.016 302.757 335.672C303.077 334.264 303.141 332.216 302.949 329.528C302.693 325.944 302.149 323.384 301.317 321.848C300.485 320.312 299.621 319.384 298.725 319.064C297.893 318.68 297.285 318.488 296.901 318.488C296.645 318.488 296.101 318.488 295.269 318.488C294.501 318.488 293.669 318.392 292.773 318.2C291.877 318.008 291.109 317.688 290.469 317.24C289.829 316.792 289.541 316.152 289.605 315.32C289.669 314.168 290.021 313.304 290.661 312.728C291.301 312.152 291.973 311.768 292.677 311.576C293.381 311.384 293.797 311.288 293.925 311.288C294.117 311.224 294.565 311.096 295.269 310.904C295.973 310.712 296.613 310.2 297.189 309.368C297.829 308.472 298.021 307.064 297.765 305.144C297.573 303.16 296.997 301.88 296.037 301.304C295.077 300.664 294.149 300.376 293.253 300.44C292.421 300.44 291.941 300.44 291.813 300.44C291.749 300.44 291.109 300.6 289.893 300.92C288.677 301.176 287.269 301.368 285.669 301.496C284.133 301.624 282.725 301.528 281.445 301.208C280.165 300.888 279.397 300.152 279.141 299ZM325.51 297.08C325.51 297.08 325.574 296.696 325.702 295.928C325.894 295.16 326.406 294.392 327.238 293.624C328.134 292.792 329.574 292.344 331.558 292.28C332.774 292.216 334.31 292.184 336.166 292.184C338.022 292.12 339.974 292.056 342.022 291.992C344.134 291.928 346.086 291.864 347.878 291.8C349.67 291.736 351.142 291.704 352.294 291.704C353.446 291.64 354.022 291.608 354.022 291.608C354.022 291.608 354.406 291.608 355.174 291.608C356.006 291.608 356.966 291.736 358.054 291.992C359.142 292.184 360.102 292.568 360.934 293.144C361.766 293.72 362.214 294.584 362.278 295.736C362.342 296.888 362.022 297.816 361.318 298.52C360.614 299.16 359.782 299.672 358.822 300.056C357.926 300.376 357.126 300.6 356.422 300.728C355.718 300.792 355.366 300.824 355.366 300.824L339.238 301.208L338.566 309.272C338.566 309.272 339.078 309.208 340.102 309.08C341.19 308.888 342.566 308.792 344.23 308.792C345.958 308.792 347.718 308.984 349.51 309.368C351.366 309.688 353.094 310.328 354.694 311.288C357.702 313.144 359.75 315.32 360.838 317.816C361.926 320.248 362.502 323.48 362.566 327.512C362.566 329.496 362.31 331.64 361.798 333.944C361.286 336.184 360.294 338.296 358.822 340.28C357.414 342.264 355.366 343.896 352.678 345.176C350.054 346.392 346.566 347 342.214 347C337.926 347 334.374 346.456 331.558 345.368C328.806 344.28 326.822 343 325.606 341.528C324.454 339.992 324.038 338.584 324.358 337.304C324.742 335.96 325.862 335.032 327.718 334.52C330.214 333.816 332.198 333.656 333.67 334.04C335.142 334.36 336.198 334.808 336.838 335.384C337.478 335.896 337.798 336.152 337.798 336.152C337.798 336.152 338.086 336.44 338.662 337.016C339.302 337.592 340.518 337.912 342.31 337.976C344.102 338.04 345.35 337.048 346.054 335C346.822 332.888 347.046 330.168 346.726 326.84C346.47 323.512 345.958 321.048 345.19 319.448C344.422 317.848 343.302 316.952 341.83 316.76C340.87 316.632 340.038 316.824 339.334 317.336C338.694 317.784 338.182 318.296 337.798 318.872C337.414 319.384 337.19 319.672 337.126 319.736C337.062 319.736 336.742 319.96 336.166 320.408C335.654 320.856 334.822 321.24 333.67 321.56C332.518 321.816 331.014 321.72 329.158 321.272C326.406 320.568 324.678 319.736 323.974 318.776C323.334 317.752 323.142 316.248 323.398 314.264C323.654 312.216 323.942 309.688 324.262 306.68C324.646 303.608 325.062 300.408 325.51 297.08Z" fill="#C7151F"/>
<path d="M214 187C214 199.865 206.164 210.899 195.005 215.59L183 231.902L170.995 215.59C159.836 210.899 152 199.865 152 187C152 169.88 165.878 156 183 156C200.12 156 214 169.88 214 187Z" fill="white"/>
<path d="M183.452 204.905C193.091 204.905 200.905 197.091 200.905 187.452C200.905 177.814 193.091 170 183.452 170C173.814 170 166 177.814 166 187.452C166 197.091 173.814 204.905 183.452 204.905Z" fill="#E22B2B"/>
</svg>
